<svg width="369" height="179" viewBox="0 0 369 179" fill="none" xmlns="http://www.w3.org/2000/svg">
<path opacity="0.5" d="M4.58889 73.9769L0.5 74.0147V234H368.5V30.202L364.411 28.1122C360.322 26.0225 352.144 21.843 343.967 14.5887C335.789 7.33447 327.611 -2.99449 319.433 2.59587C311.256 8.18623 303.078 29.6959 294.9 39.3131C286.722 48.9303 278.544 46.655 270.367 52.5168C262.189 58.3786 254.011 72.3776 245.833 72.9296C237.656 73.4816 229.478 60.5868 221.3 59.7209C213.122 58.855 204.944 70.0181 196.767 69.2014C188.589 68.3847 180.411 55.5883 172.233 47.1872C164.056 38.7861 155.878 34.7802 147.7 32.0791C139.522 29.3779 131.344 27.9816 123.167 33.3011C114.989 38.6206 106.811 50.6559 98.6333 60.8813C90.4556 71.1066 82.2778 79.5221 74.1 83.1372C65.9222 86.7522 57.7444 85.567 49.5667 83.2087C41.3889 80.8505 33.2111 77.3192 25.0333 75.5913C16.8556 73.8635 8.67778 73.9391 4.58889 73.9769Z" fill="url(#paint0_linear_2079_1102)"/>
<path d="M0.5 73.641L4.58889 73.6034C8.67778 73.5658 16.8556 73.4906 25.0333 75.2096C33.2111 76.9287 41.3889 80.4418 49.5667 82.788C57.7444 85.1342 65.9222 86.3134 74.1 82.7168C82.2778 79.1203 90.4556 70.7479 98.6333 60.5748C106.811 50.4018 114.989 38.428 123.167 33.1358C131.344 27.8435 139.522 29.2327 147.7 31.92C155.878 34.6073 164.056 38.5927 172.233 46.9508C180.411 55.309 188.589 68.0399 196.767 68.8524C204.944 69.6649 213.122 58.5589 221.3 59.4204C229.478 60.2818 237.656 73.1107 245.833 72.5615C254.011 72.0123 262.189 58.085 270.367 52.2532C278.544 46.4214 286.722 48.685 294.9 39.1171C303.078 29.5491 311.256 8.14946 319.433 2.5877C327.611 -2.97405 335.789 7.30206 343.967 14.5192C352.144 21.7363 360.322 25.8944 364.411 27.9735L368.5 30.0525" stroke="#1B365D" stroke-width="2"/>
<defs>
<linearGradient id="paint0_linear_2079_1102" x1="184.5" y1="1" x2="184.5" y2="234" gradientUnits="userSpaceOnUse">
<stop stop-color="#CED9E5"/>
<stop offset="1" stop-color="#FAFAFA"/>
</linearGradient>
</defs>
</svg>
