<svg width="72" height="56" viewBox="0 0 72 56" fill="none" xmlns="http://www.w3.org/2000/svg">
<path d="M1.70252 25.9965L4.14643 30.8298L6.97549 30.8323L9.37752 25.9965H10.5815V25.1205H6.95978V25.9965H8.006L6.25682 29.5167L4.48445 25.9965H5.75577L5.75502 25.1205H0.500748L0.5 25.9965H1.70252Z" fill="black" fill-opacity="0.96"/>
<path d="M32.8363 25.9948V25.1205H37.6808V25.994H36.4738V29.9392H37.5925C38.629 29.9392 39.3088 29.1935 39.3088 28.1824H40.1082V30.8242H32.8355V29.94H34.0568L34.0553 25.9932H32.8355L32.8363 25.9948Z" fill="black" fill-opacity="0.96"/>
<path d="M21.0878 25C18.6551 25 17.3629 26.3213 17.3629 27.9788C17.3629 29.6364 18.6073 31 21.102 31C23.5968 31 24.827 29.66 24.827 27.9788C24.827 26.2977 23.5213 25 21.0878 25ZM21.0609 30.0923C20.1725 30.0752 19.7821 29.0062 19.7986 27.9438C19.8165 26.844 20.2996 25.8849 21.132 25.9004C21.9643 25.9167 22.404 26.8936 22.3861 27.9935C22.3689 29.0307 21.9763 30.111 21.0609 30.0931V30.0923Z" fill="black" fill-opacity="0.96"/>
<path d="M48.374 25.9965L50.8172 30.8298L53.647 30.8323L56.049 25.9965H57.253V25.1205H53.6313V25.9965H54.6775L52.9283 29.5167L51.156 25.9965H52.4265V25.1205H47.1723L47.1715 25.9965H48.374Z" fill="black" fill-opacity="0.96"/>
<path d="M67.7608 25C65.3281 25 64.0359 26.3213 64.0359 27.9788C64.0359 29.6364 65.2803 31 67.775 31C70.2698 31 71.5 29.66 71.5 27.9788C71.5 26.2977 70.1943 25 67.7608 25ZM67.7339 30.0923C66.8455 30.0752 66.4551 29.0062 66.4723 27.9438C66.4903 26.844 66.9734 25.8849 67.8057 25.9004C68.6381 25.9167 69.077 26.8936 69.0591 27.9935C69.0426 29.0307 68.6493 30.111 67.7339 30.0931V30.0923Z" fill="black" fill-opacity="0.96"/>
</svg>
